<?xml version="1.0" standalone="no"?>
<!DOCTYPE svg PUBLIC "-//W3C//DTD SVG 20010904//EN"
 "http://www.w3.org/TR/2001/REC-SVG-20010904/DTD/svg10.dtd">
<svg version="1.0" xmlns="http://www.w3.org/2000/svg"
 width="100px" height="100px" viewBox="0 0 1200.000000 630.000000"
 preserveAspectRatio="xMidYMid meet">
<metadata>
Created by potrace 1.16, written by Peter Selinger 2001-2019
</metadata>
<g transform="translate(0.000000,630.000000) scale(0.100000,-0.100000)"
fill="#000000" stroke="none">
<path d="M5790 6293 c-414 -29 -817 -137 -1175 -314 -77 -38 -155 -78 -174
-90 l-33 -20 6 -92 c4 -51 2 -193 -4 -317 -21 -451 -69 -737 -150 -889 -29
-52 -29 -53 -7 -47 176 51 305 70 487 69 209 0 417 -37 571 -102 l67 -28 105
121 c575 661 1384 1130 2086 1208 61 6 111 14 111 18 -1 18 -349 197 -510 262
-425 171 -935 253 -1380 221z"/>
<path d="M4015 5584 c-676 -565 -1075 -1332 -1145 -2198 -20 -254 -9 -496 36
-764 31 -191 29 -185 67 -178 17 3 69 9 116 12 66 5 105 14 166 39 96 40 304
112 435 150 52 15 98 30 103 34 4 4 -59 78 -140 165 -166 178 -195 224 -213
339 -21 138 6 260 75 337 77 87 101 153 129 357 18 127 38 188 96 287 l40 68
4 202 c3 201 11 264 56 452 44 187 130 432 243 692 20 45 33 82 29 82 -4 -1
-47 -35 -97 -76z"/>
<path d="M7900 5593 c-351 -228 -516 -361 -835 -673 -379 -370 -760 -666
-1035 -804 -58 -29 -112 -55 -120 -58 -12 -4 -7 -28 27 -139 57 -182 98 -352
117 -484 34 -235 42 -263 110 -400 121 -242 294 -483 485 -674 106 -106 355
-422 481 -609 19 -29 38 -52 43 -52 10 0 148 69 165 82 9 8 -9 33 -76 102
-154 158 -362 381 -362 387 0 4 115 91 255 194 141 104 258 191 260 195 3 4
-40 108 -94 232 -293 668 -305 699 -290 723 24 40 311 402 459 580 314 378
639 723 832 884 76 63 86 75 78 92 -31 56 -438 440 -466 438 -5 0 -20 -7 -34
-16z"/>
<path d="M4953 4222 c21 -23 31 -73 23 -106 -9 -36 -33 -56 -69 -56 -39 0 -72
22 -97 63 -16 26 -20 28 -26 13 -11 -28 3 -120 24 -163 44 -86 135 -142 208
-128 101 18 143 156 83 271 -37 69 -101 124 -145 124 -16 0 -16 -1 -1 -18z"/>
<path d="M3810 3979 c-68 -69 -111 -200 -91 -277 30 -108 130 -83 201 50 28
53 35 76 38 144 5 84 -10 123 -22 59 -9 -46 -52 -97 -80 -93 -32 5 -42 47 -24
102 8 25 14 46 12 46 -1 0 -17 -14 -34 -31z"/>
<path d="M8620 3695 c-217 -140 -411 -264 -430 -275 -35 -20 -345 -221 -389
-252 l-23 -16 36 -329 c20 -181 36 -341 36 -356 0 -22 -32 -51 -215 -194 -118
-92 -214 -171 -215 -174 0 -6 45 -65 233 -303 59 -75 107 -140 107 -144 0 -4
-48 -29 -107 -54 -313 -136 -368 -161 -372 -164 -2 -2 27 -38 65 -80 38 -43
86 -97 107 -120 l38 -43 -89 -45 -89 -45 -6 -113 c-10 -170 -49 -294 -119
-374 l-32 -36 18 -153 c10 -84 22 -158 26 -165 6 -9 45 6 144 53 719 346 1280
947 1570 1683 199 506 263 1029 191 1579 -22 170 -67 375 -83 375 -4 0 -185
-115 -402 -255z"/>
<path d="M4535 3604 c-11 -8 -51 -24 -90 -35 -84 -25 -197 -23 -287 6 -57 18
-58 18 -80 -2 -31 -28 -76 -50 -131 -64 -26 -6 -47 -13 -47 -15 0 -12 207
-326 276 -419 99 -134 208 -240 261 -254 32 -9 42 -8 63 7 48 36 53 72 58 417
2 176 2 332 0 347 -3 25 -4 26 -23 12z"/>
<path d="M5480 2736 c-127 -35 -200 -134 -200 -273 0 -240 171 -440 464 -539
80 -27 262 -64 309 -63 18 0 -4 7 -48 15 -303 54 -541 191 -636 366 -31 57
-34 71 -34 143 0 131 46 214 143 262 53 26 65 28 177 27 125 0 179 -11 327
-61 43 -15 81 -23 85 -20 12 13 -41 58 -102 87 -136 64 -362 90 -485 56z"/>
<path d="M3040 1984 c0 -23 156 -322 230 -439 335 -533 829 -981 1375 -1245
167 -81 305 -134 315 -123 10 10 50 140 50 162 0 14 -10 18 -54 19 -137 3
-313 128 -422 298 -70 109 -74 130 -78 397 -4 212 -24 508 -41 618 -5 30 -10
36 -26 32 -26 -7 -378 14 -559 33 -221 23 -337 51 -535 129 -60 23 -129 48
-151 54 -23 6 -56 25 -73 43 -17 17 -31 28 -31 22z"/>
<path d="M5670 571 c-52 -21 -148 -64 -212 -95 l-117 -58 -11 -52 c-6 -28 -14
-103 -17 -167 -7 -134 -20 -119 117 -143 436 -78 866 -64 1303 41 141 33 148
36 142 57 -4 11 -9 63 -12 114 l-5 93 -72 -7 c-126 -11 -239 15 -620 141 -192
63 -360 115 -375 115 -14 0 -69 -18 -121 -39z"/>
</g>
</svg>
